<?xml version="1.0" standalone="no"?>
<!DOCTYPE svg PUBLIC "-//W3C//DTD SVG 20010904//EN"
 "http://www.w3.org/TR/2001/REC-SVG-20010904/DTD/svg10.dtd">
<svg version="1.0" xmlns="http://www.w3.org/2000/svg"
 width="493.000000pt" height="506.000000pt" viewBox="0 0 493.000000 506.000000"
 preserveAspectRatio="xMidYMid meet">

<g transform="translate(0.000000,506.000000) scale(0.100000,-0.100000)"
fill="#000000" stroke="none">
<path d="M2205 3961 c-70 -18 -337 -221 -410 -311 -11 -13 -51 -55 -89 -93
-60 -60 -68 -72 -63 -97 4 -19 -4 -57 -24 -112 -23 -63 -29 -92 -25 -122 5
-27 2 -46 -10 -63 -15 -23 -15 -29 0 -78 13 -39 15 -62 8 -92 -7 -29 -6 -50 3
-70 7 -15 19 -50 28 -78 34 -109 63 -182 84 -212 13 -17 28 -55 34 -84 6 -30
19 -70 29 -89 9 -19 23 -60 30 -90 17 -76 39 -131 62 -156 10 -12 29 -55 42
-95 22 -72 23 -74 53 -72 28 3 32 -1 39 -29 14 -65 66 -120 209 -221 135 -95
272 -206 279 -224 5 -12 -3 -14 -40 -12 l-45 3 -66 -77 c-67 -81 -72 -99 -31
-118 13 -5 34 -26 46 -46 l24 -36 -21 -28 c-12 -15 -21 -34 -21 -41 0 -7 -10
-40 -21 -73 -16 -45 -24 -110 -34 -265 -7 -113 -13 -205 -14 -205 -10 0 -19
-142 -27 -437 l-7 -238 202 0 201 0 1 63 c8 491 -18 998 -61 1168 -16 64 -16
76 -4 90 8 8 14 20 14 25 0 5 14 26 31 47 l31 38 24 -22 c13 -12 26 -20 29
-18 9 10 -66 147 -95 173 -22 19 -30 22 -30 11 0 -8 -8 -15 -18 -15 -20 0 -60
26 -52 33 3 2 61 41 130 87 235 156 329 239 345 303 9 36 38 52 67 36 18 -10
24 -8 35 7 8 11 17 30 20 44 3 14 25 70 48 125 23 55 50 123 60 150 11 28 27
61 37 74 10 13 18 30 18 37 0 8 4 14 8 14 11 0 102 116 102 130 0 5 7 13 16
18 13 7 15 17 10 43 -16 85 -18 131 -7 139 29 17 85 293 78 380 -8 93 -59 188
-110 206 -48 17 -139 77 -155 104 -7 11 -16 51 -21 89 -5 37 -14 79 -21 91
-18 33 -100 120 -114 120 -6 0 -46 22 -88 50 -42 27 -107 62 -143 76 -66 26
-69 27 -150 14 -95 -15 -190 -10 -255 14 -53 19 -162 29 -205 17z m305 -516
c13 -16 67 -33 140 -44 27 -4 44 -12 43 -19 -2 -7 4 -12 12 -12 8 0 15 -7 15
-15 0 -9 -8 -14 -21 -12 -18 2 -22 -4 -26 -38 -4 -41 -3 -41 48 -62 29 -13 48
-26 44 -33 -3 -6 3 -10 14 -10 47 0 2 -31 -46 -32 -20 0 -62 -34 -67 -54 -4
-14 -18 -27 -40 -34 -30 -9 -35 -17 -41 -51 -4 -22 -5 -43 -2 -46 3 -2 0 -21
-7 -41 -8 -26 -9 -51 -3 -82 12 -63 11 -118 -3 -135 -10 -12 -6 -22 19 -52 41
-49 42 -50 70 -71 14 -11 22 -26 20 -37 -4 -17 -5 -17 -21 -2 -28 28 -65 38
-95 25 -47 -18 -76 -15 -97 11 -26 32 -28 61 -5 61 12 0 16 5 13 14 -3 8 3 19
15 25 28 16 35 46 17 83 -9 19 -16 56 -15 83 0 28 -3 82 -6 121 l-7 70 -104
50 c-95 44 -112 58 -115 89 0 6 -5 15 -10 21 -9 11 28 34 56 34 22 0 18 18 -5
25 -15 5 -19 12 -14 30 3 12 1 26 -5 29 -17 11 -13 36 7 36 13 0 14 2 4 9 -11
6 -6 14 17 30 21 16 52 24 101 28 38 3 70 10 70 14 0 14 16 10 30 -6z m-249
-417 c8 -13 -23 -22 -107 -31 -26 -3 -31 -1 -27 14 10 36 114 49 134 17z m592
-5 c-7 -2 -19 -2 -25 0 -7 3 -2 5 12 5 14 0 19 -2 13 -5z m-80 -105 c4 -12 4
-24 1 -27 -8 -9 -37 27 -30 38 11 17 23 13 29 -11z m-458 -1 c17 -13 16 -15
-15 -31 -40 -19 -44 -17 -29 18 14 30 18 31 44 13z m575 -2 c0 -8 -4 -15 -10
-15 -5 0 -7 7 -4 15 4 8 8 15 10 15 2 0 4 -7 4 -15z m-716 -21 c5 -14 4 -15
-9 -4 -17 14 -19 20 -6 20 5 0 12 -7 15 -16z m-75 -63 c10 -6 52 -11 94 -12
76 -2 81 -5 78 -39 -1 -8 12 -30 28 -48 51 -55 53 -63 20 -100 -16 -18 -29
-44 -29 -58 0 -31 25 -80 47 -92 14 -9 15 -12 2 -24 -8 -7 -30 -22 -49 -32
-23 -11 -27 -16 -12 -13 15 4 22 1 19 -6 -5 -17 -48 -18 -74 -1 -14 9 -23 24
-23 40 0 34 -26 41 -54 15 l-24 -22 -16 22 c-20 29 -20 37 -2 41 12 3 12 9 -1
40 -8 21 -19 36 -23 33 -5 -3 -16 20 -26 50 -9 31 -21 58 -25 61 -5 3 -9 14
-9 25 0 10 -6 19 -12 19 -10 0 -10 2 0 9 8 4 13 19 12 32 -4 49 0 58 28 62 15
2 28 5 30 6 2 0 11 -3 21 -8z m776 0 c-6 -10 9 -16 67 -27 45 -7 69 -31 47
-45 -12 -8 -11 -12 5 -24 24 -18 16 -54 -23 -104 -18 -22 -32 -55 -36 -86 -7
-42 -9 -46 -15 -25 l-6 25 -8 -22 c-4 -13 -11 -23 -15 -23 -14 0 -44 -64 -45
-99 -1 -35 -2 -36 -34 -33 -44 4 -82 21 -120 54 -34 28 -35 58 -2 58 24 0 68
43 76 74 5 19 -1 37 -20 66 -28 42 -32 60 -16 60 6 0 10 9 10 21 0 13 8 23 21
26 16 5 18 8 7 15 -9 7 -4 8 15 5 30 -5 31 -2 12 48 -5 11 -5 17 -1 13 4 -4
22 2 39 13 35 20 52 25 42 10z m-482 -248 c3 -5 -1 -14 -8 -20 -11 -10 -13 -9
-12 7 1 20 12 26 20 13z m244 -79 c-3 -3 -12 -4 -19 -1 -8 3 -5 6 6 6 11 1 17
-2 13 -5z m-97 -54 c0 -5 -10 -10 -22 -10 -19 0 -20 2 -8 10 19 13 30 13 30 0z
m118 -359 c1 -35 -40 -81 -72 -81 -11 0 -39 7 -61 14 -39 14 -60 12 -51 -3 3
-4 -7 -7 -20 -6 -33 0 -48 26 -33 59 10 20 21 26 65 32 30 3 60 4 69 0 8 -3
15 -1 15 4 0 15 19 12 36 -5 16 -16 35 -20 33 -7 -3 18 2 33 9 28 5 -3 9 -19
10 -35z"/>
<path d="M1823 1738 c-19 -6 -33 -18 -33 -26 0 -12 3 -13 12 -4 9 9 16 8 32
-6 11 -9 16 -11 12 -4 -4 7 -2 12 7 12 12 0 27 20 27 36 0 6 -21 3 -57 -8z"/>
</g>
</svg>
